<mxfile host="app.diagrams.net" modified="2023-04-26T14:32:00.287Z" agent="Mozilla/5.0 (Windows NT 10.0; Win64; x64; rv:109.0) Gecko/20100101 Firefox/112.0" etag="jDpHZZpOL1L32IlF4i02" version="21.2.2" type="github">
  <diagram name="Strona-1" id="VtrbDFPd5q9PhZEtTbry">
    <mxGraphModel dx="1195" dy="652" grid="1" gridSize="10" guides="1" tooltips="1" connect="1" arrows="1" fold="1" page="1" pageScale="1" pageWidth="827" pageHeight="1169" math="0" shadow="0">
      <root>
        <mxCell id="0" />
        <mxCell id="1" parent="0" />
        <mxCell id="7bphNffgXHVLwuXxrw4F-3" style="edgeStyle=orthogonalEdgeStyle;rounded=0;orthogonalLoop=1;jettySize=auto;html=1;" edge="1" parent="1" source="7bphNffgXHVLwuXxrw4F-1" target="7bphNffgXHVLwuXxrw4F-2">
          <mxGeometry relative="1" as="geometry" />
        </mxCell>
        <mxCell id="7bphNffgXHVLwuXxrw4F-1" value="" style="ellipse;fillColor=strokeColor;html=1;" vertex="1" parent="1">
          <mxGeometry x="130" y="170" width="30" height="30" as="geometry" />
        </mxCell>
        <mxCell id="7bphNffgXHVLwuXxrw4F-7" value="" style="edgeStyle=orthogonalEdgeStyle;rounded=0;orthogonalLoop=1;jettySize=auto;html=1;" edge="1" parent="1" source="7bphNffgXHVLwuXxrw4F-2" target="7bphNffgXHVLwuXxrw4F-6">
          <mxGeometry relative="1" as="geometry" />
        </mxCell>
        <mxCell id="7bphNffgXHVLwuXxrw4F-17" style="edgeStyle=orthogonalEdgeStyle;rounded=0;orthogonalLoop=1;jettySize=auto;html=1;exitX=0.5;exitY=0;exitDx=0;exitDy=0;entryX=0.5;entryY=1;entryDx=0;entryDy=0;" edge="1" parent="1" source="7bphNffgXHVLwuXxrw4F-2" target="7bphNffgXHVLwuXxrw4F-16">
          <mxGeometry relative="1" as="geometry" />
        </mxCell>
        <mxCell id="7bphNffgXHVLwuXxrw4F-2" value="Waiting for user input" style="rounded=1;whiteSpace=wrap;html=1;" vertex="1" parent="1">
          <mxGeometry x="294" y="155" width="120" height="60" as="geometry" />
        </mxCell>
        <mxCell id="7bphNffgXHVLwuXxrw4F-9" value="" style="edgeStyle=orthogonalEdgeStyle;rounded=0;orthogonalLoop=1;jettySize=auto;html=1;" edge="1" parent="1" source="7bphNffgXHVLwuXxrw4F-6" target="7bphNffgXHVLwuXxrw4F-8">
          <mxGeometry relative="1" as="geometry" />
        </mxCell>
        <mxCell id="7bphNffgXHVLwuXxrw4F-6" value="Finding random song" style="whiteSpace=wrap;html=1;rounded=1;" vertex="1" parent="1">
          <mxGeometry x="294" y="295" width="120" height="60" as="geometry" />
        </mxCell>
        <mxCell id="7bphNffgXHVLwuXxrw4F-11" style="edgeStyle=orthogonalEdgeStyle;rounded=0;orthogonalLoop=1;jettySize=auto;html=1;exitX=1;exitY=0;exitDx=0;exitDy=0;entryX=0.5;entryY=1;entryDx=0;entryDy=0;" edge="1" parent="1" source="7bphNffgXHVLwuXxrw4F-8" target="7bphNffgXHVLwuXxrw4F-13">
          <mxGeometry relative="1" as="geometry">
            <mxPoint x="614.1666666666667" y="229.9999999999999" as="targetPoint" />
          </mxGeometry>
        </mxCell>
        <mxCell id="7bphNffgXHVLwuXxrw4F-15" style="edgeStyle=orthogonalEdgeStyle;rounded=0;orthogonalLoop=1;jettySize=auto;html=1;exitX=0.25;exitY=0;exitDx=0;exitDy=0;" edge="1" parent="1" source="7bphNffgXHVLwuXxrw4F-8">
          <mxGeometry relative="1" as="geometry">
            <mxPoint x="480" y="180" as="targetPoint" />
          </mxGeometry>
        </mxCell>
        <mxCell id="7bphNffgXHVLwuXxrw4F-8" value="Searching for song file" style="whiteSpace=wrap;html=1;rounded=1;" vertex="1" parent="1">
          <mxGeometry x="494" y="295" width="120" height="60" as="geometry" />
        </mxCell>
        <mxCell id="7bphNffgXHVLwuXxrw4F-14" style="edgeStyle=orthogonalEdgeStyle;rounded=0;orthogonalLoop=1;jettySize=auto;html=1;exitX=0;exitY=0.5;exitDx=0;exitDy=0;entryX=1;entryY=0.5;entryDx=0;entryDy=0;" edge="1" parent="1" source="7bphNffgXHVLwuXxrw4F-13" target="7bphNffgXHVLwuXxrw4F-2">
          <mxGeometry relative="1" as="geometry" />
        </mxCell>
        <mxCell id="7bphNffgXHVLwuXxrw4F-13" value="Integrating found song into response to client" style="rounded=1;whiteSpace=wrap;html=1;" vertex="1" parent="1">
          <mxGeometry x="550" y="155" width="120" height="60" as="geometry" />
        </mxCell>
        <mxCell id="7bphNffgXHVLwuXxrw4F-16" value="" style="ellipse;html=1;shape=endState;fillColor=strokeColor;" vertex="1" parent="1">
          <mxGeometry x="339" y="40" width="30" height="30" as="geometry" />
        </mxCell>
        <mxCell id="7bphNffgXHVLwuXxrw4F-18" value="No song file found" style="text;html=1;strokeColor=none;fillColor=none;align=center;verticalAlign=middle;whiteSpace=wrap;rounded=0;" vertex="1" parent="1">
          <mxGeometry x="470" y="260" width="60" height="30" as="geometry" />
        </mxCell>
        <mxCell id="7bphNffgXHVLwuXxrw4F-19" value="Song file found" style="text;html=1;strokeColor=none;fillColor=none;align=center;verticalAlign=middle;whiteSpace=wrap;rounded=0;" vertex="1" parent="1">
          <mxGeometry x="614" y="260" width="60" height="30" as="geometry" />
        </mxCell>
        <mxCell id="7bphNffgXHVLwuXxrw4F-20" value="Request a song" style="text;html=1;strokeColor=none;fillColor=none;align=center;verticalAlign=middle;whiteSpace=wrap;rounded=0;" vertex="1" parent="1">
          <mxGeometry x="300" y="230" width="60" height="30" as="geometry" />
        </mxCell>
        <mxCell id="7bphNffgXHVLwuXxrw4F-21" value="Song information" style="text;html=1;strokeColor=none;fillColor=none;align=center;verticalAlign=middle;whiteSpace=wrap;rounded=0;" vertex="1" parent="1">
          <mxGeometry x="430" y="335" width="60" height="30" as="geometry" />
        </mxCell>
        <mxCell id="7bphNffgXHVLwuXxrw4F-22" value="EXIT" style="text;html=1;strokeColor=none;fillColor=none;align=center;verticalAlign=middle;whiteSpace=wrap;rounded=0;" vertex="1" parent="1">
          <mxGeometry x="340" y="100" width="60" height="30" as="geometry" />
        </mxCell>
        <mxCell id="7bphNffgXHVLwuXxrw4F-23" value="Show the user an interface" style="text;html=1;strokeColor=none;fillColor=none;align=center;verticalAlign=middle;whiteSpace=wrap;rounded=0;" vertex="1" parent="1">
          <mxGeometry x="200" y="155" width="70" height="30" as="geometry" />
        </mxCell>
        <mxCell id="7bphNffgXHVLwuXxrw4F-24" value="Showing the retrieved data" style="text;html=1;strokeColor=none;fillColor=none;align=center;verticalAlign=middle;whiteSpace=wrap;rounded=0;" vertex="1" parent="1">
          <mxGeometry x="430" y="155" width="70" height="30" as="geometry" />
        </mxCell>
      </root>
    </mxGraphModel>
  </diagram>
</mxfile>
